<svg xmlns="http://www.w3.org/2000/svg" width="180" height="45" viewBox="-1.275 -0.398 180 45" overflow="visible"><path fill="#C41230" d="M0 .198v13.183h4.396v21.92l8.791 8.734h21.862l8.787-8.734v-21.92h4.398V.198H26.312v13.183h4.399V30.85H17.525V13.381h4.395V.198H0z"/><path d="M57.406.72l-1.533.041c-.598.021-.844.072-.998.298a1.248 1.248 0 0 0-.176.36c-.021.083-.051.124-.113.124-.072 0-.092-.051-.092-.165 0-.165.195-1.101.216-1.184.03-.132.061-.194.124-.194.082 0 .185.103.441.123.299.031.689.052 1.029.052h4.076c.658 0 .904-.103.987-.103.071 0 .083.062.083.216 0 .216-.031.926-.031 1.194-.011.103-.031.165-.093.165-.083 0-.103-.052-.113-.206l-.011-.113c-.02-.268-.298-.556-1.214-.576L58.692.72v4.219c0 .947 0 1.76.052 2.202.031.289.092.515.4.556.145.021.371.041.525.041.113 0 .165.031.165.082 0 .072-.083.103-.196.103-.679 0-1.327-.031-1.615-.031-.236 0-.885.031-1.297.031-.133 0-.205-.031-.205-.103 0-.051.041-.082.164-.082.154 0 .277-.021.371-.041.205-.042.268-.268.298-.566.052-.432.052-1.245.052-2.192V.72zM69.138 3.417c.03 0 .062-.021.062-.072v-.217c0-1.564 0-1.853-.021-2.182-.021-.35-.103-.515-.442-.587a2.082 2.082 0 0 0-.401-.031c-.113 0-.175-.021-.175-.093s.072-.092.216-.092c.556 0 1.204.031 1.481.031.248 0 .896-.031 1.297-.031.145 0 .217.021.217.092 0 .072-.062.093-.186.093a1.8 1.8 0 0 0-.299.031c-.277.052-.359.227-.381.587-.02.329-.02.617-.02 2.182v1.811c0 .947 0 1.76.051 2.202.031.289.093.515.401.556.144.021.37.041.524.041.113 0 .166.031.166.082 0 .072-.083.103-.207.103-.668 0-1.316-.031-1.605-.031-.236 0-.885.031-1.285.031-.145 0-.217-.031-.217-.103 0-.051.041-.082.164-.082.154 0 .278-.021.371-.041.205-.042.258-.268.299-.566.051-.432.051-1.245.051-2.192v-.905c0-.041-.031-.062-.062-.062h-3.931c-.031 0-.062.01-.062.062v.906c0 .947 0 1.76.052 2.202.03.289.093.515.401.556.145.021.371.041.525.041.113 0 .164.031.164.082 0 .072-.082.103-.206.103-.669 0-1.317-.031-1.604-.031-.237 0-.886.031-1.297.031-.135 0-.207-.031-.207-.103 0-.051.042-.082.166-.082a1.7 1.7 0 0 0 .369-.041c.207-.042.258-.268.299-.566.052-.432.052-1.245.052-2.192V3.128c0-1.564 0-1.853-.021-2.182-.021-.35-.104-.515-.442-.587a2.082 2.082 0 0 0-.401-.031c-.113 0-.176-.021-.176-.093s.072-.092.217-.092c.556 0 1.204.031 1.482.031.246 0 .895-.031 1.296-.031.145 0 .216.021.216.092 0 .072-.061.093-.185.093-.083 0-.175.01-.299.031-.278.052-.36.227-.38.587-.021.329-.021.617-.021 2.182v.216c0 .052.031.072.062.072h3.932zM74.375 3.128c0-1.564 0-1.853-.02-2.182-.021-.35-.104-.515-.443-.587a2.071 2.071 0 0 0-.4-.031c-.113 0-.176-.021-.176-.093s.072-.092.227-.092c.545 0 1.193.031 1.482.031.329 0 2.377 0 2.572-.01.195-.021.36-.042.443-.062.051-.01.112-.041.164-.041.051 0 .062.041.062.093 0 .072-.052.195-.082.669-.011.103-.031.556-.052.679-.01.051-.031.113-.103.113s-.093-.052-.093-.145c0-.072-.01-.247-.062-.37-.071-.186-.174-.309-.689-.371-.174-.021-1.255-.041-1.461-.041-.051 0-.072.031-.072.103v2.604c0 .072.011.113.072.113.227 0 1.41 0 1.646-.021.247-.021.402-.051.494-.154.073-.081.114-.133.166-.133.041 0 .071.021.071.083s-.051.227-.082.751c-.021.206-.041.618-.041.69 0 .082 0 .195-.093.195-.071 0-.093-.041-.093-.093-.01-.103-.01-.236-.041-.37-.051-.206-.195-.36-.576-.401-.195-.021-1.215-.032-1.461-.032-.052 0-.062.042-.062.103v.813c0 .35-.01 1.297 0 1.595.021.71.186.864 1.235.864.268 0 .7 0 .968-.124s.391-.339.463-.761c.021-.113.041-.154.113-.154.082 0 .082.082.082.185 0 .237-.082.937-.134 1.142-.071.268-.165.268-.556.268-1.554 0-2.244-.062-2.851-.062-.237 0-.886.031-1.297.031-.134 0-.206-.031-.206-.103 0-.051.041-.082.165-.082.154 0 .278-.021.37-.041.206-.042.258-.268.299-.566.051-.432.051-1.245.051-2.192V3.128zM56.408 17.961c0-2.676 0-3.156-.035-3.705-.033-.583-.171-.858-.737-.978a3.146 3.146 0 0 0-.583-.052c-.068 0-.137-.034-.137-.103 0-.103.086-.137.273-.137.772 0 1.818.052 1.973.052s1.184-.052 1.698-.052c.188 0 .274.035.274.137 0 .069-.068.103-.137.103-.12 0-.223.017-.43.052-.463.068-.6.377-.634.978-.033.549-.033 1.029-.033 3.705v2.401c0 2.47.549 3.533 1.286 4.236.841.789 1.612.943 2.59.943 1.046 0 2.075-.497 2.692-1.235.789-.977.995-2.435.995-4.202V17.96c0-2.676 0-3.156-.034-3.705-.034-.583-.172-.858-.737-.978a3.153 3.153 0 0 0-.583-.052c-.068 0-.138-.034-.138-.103 0-.103.086-.137.274-.137.771 0 1.715.052 1.818.052.12 0 .926-.052 1.44-.052.188 0 .274.035.274.137 0 .069-.068.103-.137.103-.12 0-.223 0-.43.052-.463.085-.6.377-.634.978-.034.549-.034 1.029-.034 3.705v1.835c0 1.853-.206 3.911-1.578 5.128-1.235 1.098-2.521 1.269-3.533 1.269-.584 0-2.316-.068-3.533-1.217-.841-.807-1.492-2.007-1.492-4.511v-2.503zM72.959 23.621c.034 1.406.206 1.853.669 1.99.325.086.703.103.857.103.086 0 .138.034.138.103 0 .104-.104.137-.309.137-.979 0-1.664-.051-1.818-.051s-.875.051-1.646.051c-.172 0-.275-.017-.275-.137 0-.068.053-.103.138-.103.138 0 .446-.017.704-.103.428-.121.514-.618.514-2.179l.018-9.828c0-.669.051-.857.188-.857s.429.377.601.549c.257.292 2.812 3.053 5.454 5.883 1.698 1.818 3.567 3.911 4.116 4.477l-.188-8.713c-.017-1.115-.138-1.492-.669-1.629a4.543 4.543 0 0 0-.84-.086c-.121 0-.138-.051-.138-.12 0-.103.138-.12.343-.12.771 0 1.596.052 1.783.052.189 0 .756-.052 1.459-.052.188 0 .309.018.309.12 0 .069-.068.12-.189.12-.086 0-.205 0-.411.052-.565.12-.635.497-.635 1.526l-.034 10.05c0 1.133-.034 1.219-.154 1.219-.137 0-.344-.189-1.252-1.098-.189-.172-2.658-2.693-4.477-4.648a353.718 353.718 0 0 1-4.477-4.923l.221 8.215zM91.037 20.98c0 1.646 0 3.001.086 3.721.051.498.154.875.668.943.24.035.618.069.772.069.103 0 .137.052.137.103 0 .086-.086.137-.274.137-.943 0-2.023-.051-2.109-.051s-1.166.051-1.682.051c-.188 0-.273-.033-.273-.137 0-.051.034-.103.137-.103.154 0 .36-.034.515-.069.343-.068.429-.445.497-.943.086-.72.086-2.075.086-3.721v-3.019c0-2.676 0-3.156-.034-3.705-.034-.583-.206-.875-.583-.96a2.223 2.223 0 0 0-.531-.069c-.068 0-.138-.034-.138-.103 0-.103.086-.137.274-.137.566 0 1.646.052 1.732.052s1.166-.052 1.681-.052c.188 0 .274.035.274.137 0 .069-.068.103-.137.103-.12 0-.224.017-.43.052-.463.085-.6.377-.635.978-.033.549-.033 1.029-.033 3.705v3.018zM101.722 23.861c.995-2.298 3.294-8.284 3.671-9.52.086-.257.154-.497.154-.651 0-.137-.052-.309-.223-.395-.206-.069-.464-.069-.652-.069-.103 0-.188-.017-.188-.103 0-.103.103-.137.377-.137.687 0 1.476.052 1.682.052.103 0 .84-.052 1.338-.052.188 0 .291.035.291.12 0 .086-.068.12-.206.12-.119 0-.497 0-.823.206-.223.154-.479.446-.943 1.612-.188.48-1.046 2.538-1.921 4.648-1.046 2.504-1.817 4.356-2.212 5.197-.48 1.029-.549 1.303-.721 1.303-.206 0-.292-.24-.617-1.062l-4.202-10.515c-.378-.96-.635-1.149-1.235-1.32-.257-.069-.549-.069-.651-.069-.104 0-.138-.051-.138-.12 0-.103.172-.12.446-.12.823 0 1.801.052 2.007.052.171 0 .943-.052 1.595-.052.309 0 .463.035.463.12 0 .086-.051.12-.171.12-.189 0-.498.017-.652.086a.344.344 0 0 0-.223.343c0 .223.206.755.463 1.424l3.291 8.782zM111.584 17.961c0-2.676 0-3.156-.034-3.705-.034-.583-.172-.858-.737-.978a3.153 3.153 0 0 0-.583-.052c-.069 0-.138-.034-.138-.103 0-.103.086-.137.274-.137.771 0 1.853.052 1.938.052.12 0 3.533 0 3.928-.017.325-.017.601-.052.737-.086.086-.017.154-.086.24-.086.052 0 .068.069.068.155 0 .12-.086.326-.137.806-.018.172-.052.926-.086 1.132-.018.086-.052.188-.12.188-.103 0-.138-.085-.138-.223 0-.12-.017-.412-.103-.618-.12-.274-.292-.48-1.218-.583-.292-.034-2.161-.052-2.35-.052-.068 0-.104.052-.104.172v4.734c0 .12.018.171.104.171.223 0 2.332 0 2.727-.034.412-.035.652-.069.807-.24.12-.137.188-.223.257-.223.052 0 .086.035.086.137 0 .103-.086.395-.137.96-.034.343-.069.978-.069 1.098 0 .137 0 .326-.12.326-.085 0-.12-.069-.12-.154 0-.171 0-.343-.068-.566-.068-.24-.223-.532-.892-.601-.463-.051-2.161-.085-2.453-.085-.085 0-.12.051-.12.12v1.51c0 .583-.017 2.573 0 2.932.052 1.184.31 1.407 1.99 1.407.445 0 1.2 0 1.646-.188.446-.189.651-.532.771-1.235.034-.188.068-.257.154-.257.104 0 .104.137.104.257 0 .138-.138 1.304-.224 1.663-.12.447-.257.447-.926.447-2.59 0-3.739-.104-4.236-.104-.034 0-.326.018-.687.018-.343.017-.737.033-.994.033-.189 0-.275-.033-.275-.137 0-.051.035-.103.138-.103.154 0 .36-.034.515-.069.343-.068.429-.445.497-.943.086-.72.086-2.075.086-3.721v-3.018zM122.904 17.961c0-2.676 0-3.156-.034-3.705-.035-.583-.172-.858-.738-.978a3.146 3.146 0 0 0-.583-.052c-.068 0-.137-.034-.137-.103 0-.103.085-.137.274-.137.771 0 1.852.052 1.938.052.188 0 1.492-.052 2.024-.052 1.08 0 2.229.103 3.139.755.429.309 1.184 1.149 1.184 2.333 0 1.27-.532 2.539-2.075 3.962 1.406 1.801 2.572 3.327 3.567 4.391.926.977 1.663 1.166 2.093 1.234.325.052.565.052.669.052.085 0 .154.052.154.103 0 .104-.104.137-.412.137h-1.218c-.961 0-1.39-.085-1.835-.325-.737-.395-1.338-1.235-2.315-2.521-.721-.943-1.526-2.092-1.87-2.538-.068-.069-.12-.103-.223-.103l-2.109-.034c-.086 0-.12.051-.12.137v.412c0 1.646 0 3.001.086 3.721.051.498.154.875.668.943.24.035.618.069.772.069.103 0 .137.052.137.103 0 .086-.085.137-.274.137-.943 0-2.023-.051-2.109-.051-.018 0-1.098.051-1.612.051-.188 0-.274-.033-.274-.137 0-.051.034-.103.138-.103a2.6 2.6 0 0 0 .514-.069c.344-.068.43-.445.498-.943.086-.72.086-2.075.086-3.721v-3.02zm1.372 1.492c0 .086.034.154.12.206.257.154 1.046.274 1.801.274.411 0 .892-.052 1.286-.326.601-.412 1.046-1.337 1.046-2.641 0-2.144-1.132-3.431-2.967-3.431-.515 0-.978.052-1.149.103a.207.207 0 0 0-.137.206v5.609zM135.429 25.73c-.24-.119-.258-.188-.258-.651 0-.857.069-1.544.086-1.818.018-.188.052-.274.138-.274.103 0 .12.052.12.189 0 .154 0 .395.051.635.258 1.269 1.39 1.748 2.539 1.748 1.646 0 2.452-1.183 2.452-2.28 0-1.184-.497-1.87-1.972-3.087l-.772-.635c-1.817-1.492-2.229-2.556-2.229-3.722 0-1.835 1.372-3.087 3.551-3.087a6.65 6.65 0 0 1 1.595.171c.326.068.463.086.601.086.137 0 .171.034.171.12s-.068.652-.068 1.818c0 .274-.034.395-.12.395-.103 0-.12-.086-.137-.223-.018-.206-.12-.669-.224-.857-.103-.189-.565-.909-2.144-.909-1.184 0-2.109.738-2.109 1.99 0 .978.479 1.561 2.092 2.881l.48.377c2.024 1.595 2.504 2.659 2.504 4.031 0 .704-.274 2.006-1.457 2.847-.738.515-1.664.72-2.591.72-.807-.002-1.596-.121-2.299-.465zM148.601 20.98c0 1.646 0 3.001.086 3.721.052.498.154.875.669.943.24.035.618.069.772.069.103 0 .137.052.137.103 0 .086-.086.137-.274.137-.943 0-2.023-.051-2.109-.051s-1.167.051-1.681.051c-.189 0-.274-.033-.274-.137 0-.051.034-.103.137-.103.154 0 .36-.034.515-.069.343-.068.429-.445.497-.943.086-.72.086-2.075.086-3.721v-3.019c0-2.676 0-3.156-.034-3.705-.034-.583-.206-.875-.583-.96a2.224 2.224 0 0 0-.532-.069c-.068 0-.137-.034-.137-.103 0-.103.086-.137.274-.137.565 0 1.646.052 1.732.052s1.166-.052 1.681-.052c.188 0 .274.035.274.137 0 .069-.068.103-.138.103-.119 0-.223.017-.429.052-.463.085-.6.377-.634.978-.035.549-.035 1.029-.035 3.705v3.018zM159.218 20.98c0 1.646 0 3.001.086 3.721.051.498.154.875.669.943.24.035.617.069.771.069.103 0 .138.052.138.103 0 .086-.086.137-.274.137-.943 0-2.024-.051-2.11-.051s-1.166.051-1.681.051c-.188 0-.274-.033-.274-.137 0-.051.034-.103.138-.103a2.6 2.6 0 0 0 .514-.069c.344-.068.43-.445.498-.943.086-.72.086-2.075.086-3.721v-7.255l-2.539.034c-1.063.017-1.475.137-1.749.549-.188.292-.24.412-.292.532-.052.137-.103.171-.171.171-.052 0-.086-.051-.086-.154 0-.171.343-1.646.377-1.784.034-.103.103-.326.172-.326.12 0 .291.171.755.206.497.052 1.148.086 1.354.086h6.432c.549 0 .943-.052 1.218-.086.258-.051.412-.085.48-.085.086 0 .086.103.086.206 0 .515-.052 1.698-.052 1.887 0 .154-.051.223-.12.223-.085 0-.12-.052-.137-.292l-.018-.189c-.068-.515-.463-.909-2.109-.943l-2.161-.034v7.254zM170.555 21.512c0-.926-.172-1.304-.395-1.801-.12-.274-2.419-4.048-3.019-4.939-.43-.635-.858-1.063-1.167-1.27-.257-.171-.583-.274-.737-.274-.086 0-.172-.034-.172-.12 0-.068.069-.12.224-.12.325 0 1.612.052 1.698.052.119 0 .771-.052 1.44-.052.188 0 .223.052.223.12 0 .069-.103.086-.257.154-.138.069-.224.172-.224.309 0 .206.086.412.224.669.274.497 2.847 4.922 3.155 5.42.326-.721 2.505-4.477 2.848-5.043.223-.36.292-.651.292-.875 0-.24-.069-.429-.275-.48-.154-.051-.257-.085-.257-.171 0-.068.103-.103.274-.103.446 0 .995.052 1.132.052.104 0 1.338-.052 1.664-.052.12 0 .223.035.223.103 0 .086-.086.137-.223.137a1.64 1.64 0 0 0-.789.24c-.343.206-.531.412-.909.875-.565.687-2.967 4.717-3.275 5.455-.258.617-.258 1.149-.258 1.715v1.475c0 .274 0 .995.052 1.715.034.498.188.875.703.943.24.035.617.069.771.069.104 0 .138.052.138.103 0 .086-.086.137-.274.137-.943 0-2.024-.051-2.11-.051-.085 0-1.166.051-1.681.051-.188 0-.274-.033-.274-.137 0-.051.034-.103.138-.103.154 0 .359-.034.515-.069.343-.068.497-.445.531-.943.052-.72.052-1.44.052-1.715v-1.476zM62.205 30.756c3.859 0 6.74 2.436 6.74 6.432 0 3.843-2.709 7.016-6.844 7.016-4.699 0-6.654-3.653-6.654-6.74 0-2.78 2.024-6.708 6.758-6.708zm.36 12.795c1.544 0 4.733-.891 4.733-5.883 0-4.116-2.504-6.328-5.214-6.328-2.864 0-5.009 1.887-5.009 5.643.001 3.996 2.404 6.568 5.49 6.568zM73.443 35.971c0-2.676 0-3.156-.035-3.705-.033-.583-.171-.857-.736-.978a3.253 3.253 0 0 0-.584-.052c-.068 0-.137-.034-.137-.104 0-.102.086-.137.273-.137.772 0 1.854.052 1.939.052.342 0 3.824 0 4.219-.017.326-.018.6-.018.754-.069.104-.034.172-.103.24-.103.069 0 .104.068.104.154 0 .119-.086.326-.137.807-.018.171-.052.926-.086 1.131-.018.086-.052.189-.138.189-.085 0-.12-.086-.12-.206 0-.138-.051-.429-.154-.651-.103-.224-.497-.532-1.166-.549l-2.642-.052c-.103 0-.154.052-.154.188v4.734c0 .103.017.154.12.154l2.195-.018c.291 0 .531 0 .771-.018.412-.033.635-.086.789-.309.068-.086.121-.172.189-.172s.086.053.086.138c0 .103-.086.395-.138.96a21.039 21.039 0 0 0-.069 1.15c0 .154 0 .325-.119.325-.086 0-.121-.068-.121-.154-.017-.171-.033-.411-.102-.617-.086-.24-.361-.549-.893-.618-.429-.051-2.299-.051-2.59-.051-.086 0-.12.034-.12.154v1.458c0 1.646 0 3.001.086 3.722.052.498.154.875.669.943.24.034.617.068.771.068.104 0 .137.052.137.104 0 .086-.085.137-.273.137-.943 0-2.024-.051-2.109-.051-.086 0-1.167.051-1.682.051-.188 0-.274-.034-.274-.137 0-.052.034-.104.138-.104.154 0 .359-.034.514-.068.344-.068.43-.445.498-.943.086-.721.086-2.075.086-3.722v-3.014zM89.892 35.971c0-2.676 0-3.156-.034-3.705-.035-.583-.172-.857-.738-.978a3.226 3.226 0 0 0-.583-.052c-.068 0-.137-.034-.137-.104 0-.102.085-.137.274-.137.771 0 1.818.052 1.973.052s1.184-.052 1.697-.052c.189 0 .274.035.274.137 0 .069-.068.104-.137.104-.12 0-.223.018-.429.052-.463.068-.601.377-.635.978-.034.549-.034 1.029-.034 3.705v2.4c0 2.471.549 3.533 1.286 4.236.841.789 1.612.943 2.59.943 1.046 0 2.075-.496 2.693-1.234.789-.978.994-2.436.994-4.202V35.97c0-2.676 0-3.156-.034-3.705-.034-.583-.171-.857-.737-.978a3.242 3.242 0 0 0-.583-.052c-.068 0-.138-.034-.138-.104 0-.102.086-.137.274-.137.772 0 1.716.052 1.818.052.12 0 .926-.052 1.44-.052.189 0 .274.035.274.137 0 .069-.068.104-.137.104-.12 0-.223 0-.429.052-.463.085-.601.377-.635.978-.034.549-.034 1.029-.034 3.705v1.835c0 1.853-.206 3.911-1.578 5.128-1.235 1.098-2.521 1.27-3.533 1.27-.583 0-2.315-.068-3.533-1.218-.841-.806-1.492-2.007-1.492-4.511v-2.503zM109.633 38.989c0 1.646 0 3.001.086 3.722.051.498.154.875.669.943.24.034.617.068.771.068.104 0 .138.052.138.104 0 .086-.086.137-.274.137-.943 0-2.024-.051-2.11-.051s-1.166.051-1.681.051c-.188 0-.274-.034-.274-.137 0-.052.034-.104.138-.104.154 0 .359-.034.514-.068.344-.068.43-.445.498-.943.086-.721.086-2.075.086-3.722v-7.255l-2.539.033c-1.063.018-1.475.138-1.749.549-.188.292-.24.412-.292.532-.051.138-.103.171-.171.171-.052 0-.086-.051-.086-.154 0-.171.343-1.646.377-1.783.034-.104.104-.326.172-.326.12 0 .291.172.755.206.497.052 1.148.086 1.354.086h6.432c.549 0 .943-.052 1.218-.086.258-.052.412-.085.48-.085.086 0 .086.102.086.205 0 .515-.052 1.698-.052 1.887 0 .154-.051.223-.12.223-.085 0-.12-.051-.137-.291l-.018-.189c-.068-.514-.463-.908-2.109-.943l-2.161-.033v7.253zM120.388 31.426c.206-.566.274-.67.378-.67.103 0 .171.086.377.617.258.652 2.95 7.736 3.997 10.344.617 1.525 1.114 1.801 1.475 1.903.257.086.515.103.687.103.103 0 .171.018.171.104 0 .103-.154.137-.343.137-.258 0-1.51 0-2.693-.034-.325-.017-.514-.017-.514-.12 0-.068.051-.103.119-.12.104-.034.206-.188.104-.463l-1.596-4.22c-.034-.068-.068-.103-.154-.103h-3.688c-.086 0-.137.052-.171.138l-1.029 3.035c-.154.43-.24.841-.24 1.149 0 .343.36.497.651.497h.172c.12 0 .172.035.172.104 0 .103-.104.137-.258.137-.411 0-1.149-.051-1.338-.051s-1.132.051-1.938.051c-.223 0-.325-.034-.325-.137 0-.068.068-.104.154-.104.12 0 .36-.017.497-.034.789-.103 1.132-.755 1.441-1.612l3.892-10.651zm1.784 6.859c.086 0 .086-.051.068-.119l-1.629-4.631c-.086-.258-.172-.258-.258 0l-1.509 4.631c-.034.086 0 .119.051.119h3.277zM141.142 38.989c0 1.646 0 3.001.086 3.722.052.498.154.875.669.943.24.034.617.068.771.068.104 0 .138.052.138.104 0 .086-.086.137-.274.137-.943 0-2.024-.051-2.11-.051-.085 0-1.166.051-1.681.051-.188 0-.274-.034-.274-.137 0-.052.034-.104.138-.104.154 0 .36-.034.515-.068.343-.068.429-.445.497-.943.086-.721.086-2.075.086-3.722v-1.802c0-.068-.052-.102-.104-.102h-7.272c-.051 0-.103.017-.103.102v1.802c0 1.646 0 3.001.086 3.722.052.498.154.875.669.943.24.034.617.068.771.068.104 0 .138.052.138.104 0 .086-.086.137-.274.137-.943 0-2.024-.051-2.11-.051-.085 0-1.166.051-1.681.051-.188 0-.274-.034-.274-.137 0-.052.034-.104.138-.104.154 0 .36-.034.515-.068.343-.068.429-.445.497-.943.086-.721.086-2.075.086-3.722V35.97c0-2.676 0-3.156-.034-3.705-.034-.583-.172-.857-.738-.978a3.234 3.234 0 0 0-.583-.052c-.068 0-.137-.034-.137-.104 0-.102.086-.137.274-.137.771 0 1.853.052 1.938.052.086 0 1.167-.052 1.682-.052.188 0 .274.035.274.137 0 .069-.069.104-.138.104-.12 0-.223.018-.429.052-.463.085-.601.377-.635.978-.034.549-.034 1.029-.034 3.705v.359c0 .086.052.104.103.104h7.272c.052 0 .104-.018.104-.104v-.359c0-2.676 0-3.156-.034-3.705-.034-.583-.172-.857-.738-.978a3.234 3.234 0 0 0-.583-.052c-.068 0-.137-.034-.137-.104 0-.102.086-.137.274-.137.771 0 1.853.052 1.938.052.086 0 1.167-.052 1.682-.052.188 0 .274.035.274.137 0 .069-.069.104-.138.104-.12 0-.223.018-.429.052-.463.085-.601.377-.635.978-.034.549-.034 1.029-.034 3.705v3.019zM148.678 30.902c1.441 0 2.59 1.17 2.59 2.634 0 1.487-1.148 2.647-2.601 2.647-1.441 0-2.612-1.16-2.612-2.647a2.618 2.618 0 0 1 2.612-2.634h.011zm-.011.41c-1.16 0-2.108.995-2.108 2.225 0 1.254.948 2.237 2.119 2.237 1.171.012 2.109-.983 2.109-2.225s-.938-2.237-2.109-2.237h-.011zm-.492 3.758h-.469v-2.939c.246-.035.48-.07.831-.07.445 0 .738.094.913.223.176.129.271.328.271.609 0 .387-.258.621-.573.715v.023c.258.047.433.281.491.713.069.457.141.634.188.727h-.492c-.071-.093-.141-.363-.199-.75-.069-.373-.257-.514-.633-.514h-.327v1.263zm0-1.627h.34c.386 0 .714-.141.714-.504 0-.258-.188-.516-.714-.516-.152 0-.258.012-.34.023v.997z"/></svg>